<svg height="1630" width="720" xmlns="http://www.w3.org/2000/svg">
<rect height="1630" fill="#555" width="720"></rect>
<text fill="#7f7" font-family="Courier New" font-size="12" xml:space="preserve">
<tspan x="10" y="26">3 megabytes installed</tspan>
<tspan x="10" y="42"></tspan>
<tspan x="10" y="58">node_modules</tspan>
<tspan x="10" y="74">└─┬ gulp-dest@0.2.3 </tspan>
<tspan x="10" y="90">  ├─┬ extend-shallow@2.0.1 </tspan>
<tspan x="10" y="106">  │ └── is-extendable@0.1.1 </tspan>
<tspan x="10" y="122">  ├─┬ gulp-util@3.0.8 </tspan>
<tspan x="10" y="138">  │ ├── array-differ@1.0.0 </tspan>
<tspan x="10" y="154">  │ ├── array-uniq@1.0.3 </tspan>
<tspan x="10" y="170">  │ ├── beeper@1.1.1 </tspan>
<tspan x="10" y="186">  │ ├─┬ chalk@1.1.3 </tspan>
<tspan x="10" y="202">  │ │ ├── ansi-styles@2.2.1 </tspan>
<tspan x="10" y="218">  │ │ ├── escape-string-regexp@1.0.5 </tspan>
<tspan x="10" y="234">  │ │ ├─┬ has-ansi@2.0.0 </tspan>
<tspan x="10" y="250">  │ │ │ └── ansi-regex@2.1.1 </tspan>
<tspan x="10" y="266">  │ │ ├── strip-ansi@3.0.1 </tspan>
<tspan x="10" y="282">  │ │ └── supports-color@2.0.0 </tspan>
<tspan x="10" y="298">  │ ├── dateformat@2.0.0 </tspan>
<tspan x="10" y="314">  │ ├─┬ fancy-log@1.3.0 </tspan>
<tspan x="10" y="330">  │ │ └── time-stamp@1.0.1 </tspan>
<tspan x="10" y="346">  │ ├─┬ gulplog@1.0.0 </tspan>
<tspan x="10" y="362">  │ │ └── glogg@1.0.0 </tspan>
<tspan x="10" y="378">  │ ├─┬ has-gulplog@0.1.0 </tspan>
<tspan x="10" y="394">  │ │ └── sparkles@1.0.0 </tspan>
<tspan x="10" y="410">  │ ├── lodash._reescape@3.0.0 </tspan>
<tspan x="10" y="426">  │ ├── lodash._reevaluate@3.0.0 </tspan>
<tspan x="10" y="442">  │ ├── lodash._reinterpolate@3.0.0 </tspan>
<tspan x="10" y="458">  │ ├─┬ lodash.template@3.6.2 </tspan>
<tspan x="10" y="474">  │ │ ├── lodash._basecopy@3.0.1 </tspan>
<tspan x="10" y="490">  │ │ ├── lodash._basetostring@3.0.1 </tspan>
<tspan x="10" y="506">  │ │ ├── lodash._basevalues@3.0.0 </tspan>
<tspan x="10" y="522">  │ │ ├── lodash._isiterateecall@3.0.9 </tspan>
<tspan x="10" y="538">  │ │ ├─┬ lodash.escape@3.2.0 </tspan>
<tspan x="10" y="554">  │ │ │ └── lodash._root@3.0.1 </tspan>
<tspan x="10" y="570">  │ │ ├─┬ lodash.keys@3.1.2 </tspan>
<tspan x="10" y="586">  │ │ │ ├── lodash._getnative@3.9.1 </tspan>
<tspan x="10" y="602">  │ │ │ ├── lodash.isarguments@3.1.0 </tspan>
<tspan x="10" y="618">  │ │ │ └── lodash.isarray@3.0.4 </tspan>
<tspan x="10" y="634">  │ │ ├── lodash.restparam@3.6.1 </tspan>
<tspan x="10" y="650">  │ │ └── lodash.templatesettings@3.1.1 </tspan>
<tspan x="10" y="666">  │ ├── minimist@1.2.0 </tspan>
<tspan x="10" y="682">  │ ├─┬ multipipe@0.1.2 </tspan>
<tspan x="10" y="698">  │ │ └─┬ duplexer2@0.0.2 </tspan>
<tspan x="10" y="714">  │ │   └─┬ readable-stream@1.1.14 </tspan>
<tspan x="10" y="730">  │ │     ├── isarray@0.0.1 </tspan>
<tspan x="10" y="746">  │ │     └── string_decoder@0.10.31 </tspan>
<tspan x="10" y="762">  │ ├── object-assign@3.0.0 </tspan>
<tspan x="10" y="778">  │ ├── replace-ext@0.0.1 </tspan>
<tspan x="10" y="794">  │ └─┬ vinyl@0.5.3 </tspan>
<tspan x="10" y="810">  │   ├── clone@1.0.2 </tspan>
<tspan x="10" y="826">  │   └── clone-stats@0.0.1 </tspan>
<tspan x="10" y="842">  ├── lazy-cache@0.2.7 </tspan>
<tspan x="10" y="858">  ├─┬ parse-filepath@0.6.3 </tspan>
<tspan x="10" y="874">  │ ├─┬ is-absolute@0.2.6 </tspan>
<tspan x="10" y="890">  │ │ ├─┬ is-relative@0.2.1 </tspan>
<tspan x="10" y="906">  │ │ │ └─┬ is-unc-path@0.1.2 </tspan>
<tspan x="10" y="922">  │ │ │   └── unc-path-regex@0.1.2 </tspan>
<tspan x="10" y="938">  │ │ └── is-windows@0.2.0 </tspan>
<tspan x="10" y="954">  │ └── map-cache@0.2.2 </tspan>
<tspan x="10" y="970">  ├─┬ placeholders@0.2.0 </tspan>
<tspan x="10" y="986">  │ ├─┬ assign-deep@0.3.1 </tspan>
<tspan x="10" y="1002">  │ │ └─┬ kind-of@2.0.1 </tspan>
<tspan x="10" y="1018">  │ │   └── is-buffer@1.1.5 </tspan>
<tspan x="10" y="1034">  │ └─┬ expand@0.3.2 </tspan>
<tspan x="10" y="1050">  │   ├─┬ engine@0.1.12 </tspan>
<tspan x="10" y="1066">  │   │ ├─┬ assign-deep@0.4.5 </tspan>
<tspan x="10" y="1082">  │   │ │ ├── assign-symbols@0.1.1 </tspan>
<tspan x="10" y="1098">  │   │ │ └── kind-of@3.2.0 </tspan>
<tspan x="10" y="1114">  │   │ ├─┬ collection-visit@0.2.3 </tspan>
<tspan x="10" y="1130">  │   │ │ ├─┬ lazy-cache@2.0.2 </tspan>
<tspan x="10" y="1146">  │   │ │ │ └─┬ set-getter@0.1.0 </tspan>
<tspan x="10" y="1162">  │   │ │ │   └─┬ to-object-path@0.3.0 </tspan>
<tspan x="10" y="1178">  │   │ │ │     └── kind-of@3.2.0 </tspan>
<tspan x="10" y="1194">  │   │ │ ├─┬ map-visit@0.1.5 </tspan>
<tspan x="10" y="1210">  │   │ │ │ └── lazy-cache@2.0.2 </tspan>
<tspan x="10" y="1226">  │   │ │ └─┬ object-visit@0.3.4 </tspan>
<tspan x="10" y="1242">  │   │ │   └─┬ isobject@2.1.0 </tspan>
<tspan x="10" y="1258">  │   │ │     └── isarray@1.0.0 </tspan>
<tspan x="10" y="1274">  │   │ ├─┬ object.omit@2.0.1 </tspan>
<tspan x="10" y="1290">  │   │ │ └─┬ for-own@0.1.5 </tspan>
<tspan x="10" y="1306">  │   │ │   └── for-in@1.0.2 </tspan>
<tspan x="10" y="1322">  │   │ └─┬ set-value@0.2.0 </tspan>
<tspan x="10" y="1338">  │   │   └── isobject@1.0.2 </tspan>
<tspan x="10" y="1354">  │   ├─┬ get-value@1.3.1 </tspan>
<tspan x="10" y="1370">  │   │ ├── arr-flatten@1.0.3 </tspan>
<tspan x="10" y="1386">  │   │ └── noncharacters@1.1.0 </tspan>
<tspan x="10" y="1402">  │   ├── is-primitive@2.0.0 </tspan>
<tspan x="10" y="1418">  │   └── regex-flags@0.1.0 </tspan>
<tspan x="10" y="1434">  ├─┬ rewrite-ext@0.2.0 </tspan>
<tspan x="10" y="1450">  │ └── ext-map@1.0.1 </tspan>
<tspan x="10" y="1466">  └─┬ through2@2.0.3 </tspan>
<tspan x="10" y="1482">    ├─┬ readable-stream@2.2.9 </tspan>
<tspan x="10" y="1498">    │ ├── buffer-shims@1.0.0 </tspan>
<tspan x="10" y="1514">    │ ├── core-util-is@1.0.2 </tspan>
<tspan x="10" y="1530">    │ ├── inherits@2.0.3 </tspan>
<tspan x="10" y="1546">    │ ├── isarray@1.0.0 </tspan>
<tspan x="10" y="1562">    │ ├── process-nextick-args@1.0.7 </tspan>
<tspan x="10" y="1578">    │ ├── string_decoder@1.0.0 </tspan>
<tspan x="10" y="1594">    │ └── util-deprecate@1.0.2 </tspan>
<tspan x="10" y="1610">    └── xtend@4.0.1</tspan>
</text>
</svg>
